/vscmnt/brussel_pixiu_data/_data_brussel/112/vsc11236/PredSimResults/SUBJ11opt3D/expIG/worker_02.mot
version=1
nRows=11
nColumns=50
inDegrees=yes
endheader
                time	         pelvis_tilt	         pelvis_list	     pelvis_rotation	           pelvis_tx	           pelvis_ty	           pelvis_tz	       hip_flexion_r	     hip_adduction_r	      hip_rotation_r	        knee_angle_r	       ankle_angle_r	         mtp_angle_r	       hip_flexion_l	     hip_adduction_l	      hip_rotation_l	        knee_angle_l	       ankle_angle_l	         mtp_angle_l	    lumbar_extension	      lumbar_bending	     lumbar_rotation	 ercspn_r/activation	 intobl_r/activation	 extobl_r/activation	    abd_r/activation	    add_r/activation	hamstrings_r/activation	bifemsh_r/activation	glut_max_r/activation	iliopsoas_r/activation	rect_fem_r/activation	  vasti_r/activation	gastroc_r/activation	 soleus_r/activation	tib_ant_r/activation	 ercspn_l/activation	 intobl_l/activation	 extobl_l/activation	    abd_l/activation	    add_l/activation	hamstrings_l/activation	bifemsh_l/activation	glut_max_l/activation	iliopsoas_l/activation	rect_fem_l/activation	  vasti_l/activation	gastroc_l/activation	 soleus_l/activation	tib_ant_l/activation	
          0.00000000	         -2.15393448	          2.04931150	         -0.10589928	          0.00000000	          0.94977441	         -0.00836394	         29.12817953	         -3.05823362	          1.08204739	         -9.79744636	         -0.59762039	          0.22799128	        -10.22251421	          0.82234873	        -13.03805067	        -13.48069268	         13.90495056	         24.04699893	        -15.21509895	         -6.68870411	         -3.93244566	          0.01302740	          0.19197587	          0.07393625	          0.00999999	          0.12094236	          0.00999999	          0.12262807	          0.09387119	          0.09712274	          0.06368053	          0.02673554	          0.01000001	          0.00999999	          0.30982106	          0.01302740	          0.01000000	          0.00999999	          0.06368051	          0.01302741	          0.00999999	          0.08949861	          0.01816801	          0.07890645	          0.03752236	          0.00999999	          0.13209049	          0.28142925	          0.00999999	
          0.01816447	         -2.36909332	          2.22530275	         -0.66640607	          0.01685112	          0.94715395	         -0.00479113	         28.44360116	         -2.83502043	          1.24108326	         -9.82167319	         -1.27969475	          0.20367636	        -10.68950960	          0.84818162	        -14.02560219	        -14.22580723	         13.51690177	         25.54695312	        -14.76494886	         -6.29518257	         -4.21509612	          0.00999999	          0.20243987	          0.05675437	          0.03659239	          0.09992136	          0.03234412	          0.09413080	          0.07643472	          0.07455260	          0.04888195	          0.02052253	          0.01000000	          0.00999999	          0.36738706	          0.00999999	          0.00999999	          0.01302744	          0.04888194	          0.01000000	          0.01205277	          0.06870022	          0.01404004	          0.06056955	          0.02880262	          0.02574741	          0.10336681	          0.26809538	          0.00999999	
          0.03632894	         -2.57273061	          2.36425796	         -1.25622807	          0.03406889	          0.94527548	         -0.00110405	         27.84471823	         -2.63746421	          1.24985068	         -9.96913880	         -2.29109674	          0.18619011	        -11.06050731	          0.80578980	        -14.99206461	        -15.15795006	         12.83396233	         27.14875590	        -14.27961665	         -5.83132226	         -4.48538901	          0.01518221	          0.15539531	          0.04356534	          0.06679823	          0.11862936	          0.04431155	          0.07225595	          0.06923668	          0.05722748	          0.03752238	          0.05798192	          0.00999999	          0.00999999	          0.43361264	          0.00999999	          0.00999999	          0.01000002	          0.03752237	          0.00999999	          0.00999999	          0.05273513	          0.01077731	          0.04649393	          0.02210925	          0.02380171	          0.07934563	          0.24765344	          0.00999999	
          0.05449341	         -2.76570904	          2.49078883	         -1.87718170	          0.05132532	          0.94445159	          0.00268218	         27.42532170	         -2.45361725	          1.12894650	        -10.45691545	         -3.12005795	          0.13775807	        -11.22112046	          0.69491744	        -15.94933163	        -16.42407903	         11.78159670	         28.87938472	        -13.79771169	         -5.33251671	         -4.74395251	          0.01669268	          0.11928334	          0.03344129	          0.08917078	          0.12461479	          0.05043770	          0.05546455	          0.07282697	          0.04392851	          0.02880264	          0.10721992	          0.00999999	          0.00999999	          0.45792344	          0.02638176	          0.00999999	          0.00999999	          0.02880263	          0.01000000	          0.00999999	          0.04048013	          0.01097833	          0.03568931	          0.01697133	          0.03527292	          0.06090667	          0.21887612	          0.00999999	
          0.07265788	         -2.94866535	          2.60064734	         -2.51254865	          0.06849701	          0.94487809	          0.00652903	         27.06909479	         -2.25494075	          1.03332366	        -11.14285576	         -3.49625592	          0.09538026	        -11.15731460	          0.50049627	        -16.89348371	        -18.01000594	         10.31472093	         30.67613753	        -13.32729091	         -4.80281081	         -4.99440196	          0.01281352	          0.09156334	          0.02566994	          0.09946776	          0.12460339	          0.05081896	          0.04257527	          0.09245159	          0.03372006	          0.02210926	          0.12475029	          0.00999999	          0.00999999	          0.44096754	          0.05889380	          0.00999999	          0.00999999	          0.02210925	          0.02210920	          0.03707777	          0.03107304	          0.01302740	          0.02739555	          0.01302740	          0.04344286	          0.04675270	          0.18039378	          0.00999999	
          0.09082235	         -3.12017086	          2.69307897	         -3.14860105	          0.08550152	          0.94655156	          0.01039817	         26.67521831	         -2.02482765	          1.08941520	        -11.85588440	         -3.44971778	          0.07242488	        -10.88581110	          0.21835867	        -17.81286642	        -19.87895105	          8.50749905	         32.31513162	        -12.86946063	         -4.24984785	         -5.24142690	          0.00999999	          0.07028514	          0.01970456	          0.11196124	          0.14151034	          0.05500737	          0.03268129	          0.08604812	          0.02588393	          0.01697134	          0.11727266	          0.00999999	          0.00999999	          0.39807671	          0.06747992	          0.02299343	          0.00999999	          0.01697133	          0.01697130	          0.05174597	          0.02385204	          0.00999999	          0.02102916	          0.00999999	          0.05029585	          0.03588794	          0.13847246	          0.00999999	
          0.10898682	         -3.27644139	          2.77693513	         -3.77347351	          0.10231334	          0.94918242	          0.01426138	         26.18129931	         -1.77297530	          1.32805163	        -12.46905968	         -3.13808260	          0.09222180	        -10.42213470	         -0.14762183	        -18.66940424	        -22.02760549	          6.53360925	         33.50583922	        -12.42131445	         -3.69082951	         -5.48153856	          0.01021934	          0.05395173	          0.01512546	          0.12019309	          0.16044578	          0.06244378	          0.02508656	          0.07634692	          0.01986882	          0.01302740	          0.11052722	          0.00999999	          0.00999999	          0.34676931	          0.07195891	          0.05446410	          0.00999999	          0.01302740	          0.01302738	          0.05541097	          0.01830912	          0.00999999	          0.01614224	          0.00999999	          0.04135828	          0.02754802	          0.10629315	          0.00999999	
          0.12715129	         -3.41292885	          2.87056319	         -4.37493703	          0.11885495	          0.95240819	          0.01810634	         25.54627667	         -1.53213424	          1.69666645	        -12.88149755	         -2.69751480	          0.18780735	         -9.70272775	         -0.60817213	        -19.47255207	        -24.60180388	          4.59368828	         33.98191754	        -11.99020608	         -3.15786033	         -5.70527426	          0.01010079	          0.04141400	          0.01161049	          0.12672581	          0.17488594	          0.06677597	          0.01925675	          0.06656305	          0.01525155	          0.01000000	          0.10613099	          0.00999999	          0.00999999	          0.29880803	          0.06941213	          0.07699055	          0.00999999	          0.00999999	          0.00999999	          0.05681866	          0.01405430	          0.00999999	          0.01239098	          0.00999999	          0.03174712	          0.02114620	          0.08159192	          0.00999999	
          0.14531576	         -3.52561948	          2.98941650	         -4.94245192	          0.13502862	          0.95595182	          0.02191596	         24.75455535	         -1.33753549	          2.11650632	        -13.03833920	         -2.23058922	          0.36365517	         -8.64750202	         -1.19177716	        -20.25535365	        -27.78043899	          2.87843396	         33.46213482	        -11.58822693	         -2.67745093	         -5.90323566	          0.01026149	          0.03178989	          0.00999999	          0.12964974	          0.17666999	          0.07019936	          0.01478172	          0.05856277	          0.01170727	          0.00999999	          0.09836524	          0.00999999	          0.00999999	          0.25913968	          0.06514757	          0.08569248	          0.00999999	          0.00999999	          0.01000000	          0.05536470	          0.01078826	          0.00999999	          0.00999999	          0.00999999	          0.02436948	          0.01623208	          0.06263095	          0.00999999	
          0.16348023	         -3.61074019	          3.14341479	         -5.46988179	          0.15078423	          0.95961118	          0.02567009	         23.82281395	         -1.21328185	          2.52980455	        -12.95431150	         -1.78906031	          0.59704071	         -7.22013501	         -1.92311272	        -21.00858477	        -31.61089933	          1.27618195	         32.09240143	        -11.22183717	         -2.26476438	         -6.06786624	          0.01000000	          0.02440231	          0.00999999	          0.13012444	          0.17414673	          0.07227417	          0.01134663	          0.05806918	          0.00999999	          0.00999999	          0.09159257	          0.00999999	          0.00999999	          0.22785150	          0.05961876	          0.08940318	          0.00999999	          0.00999999	          0.04888192	          0.04888365	          0.00999999	          0.00999999	          0.00999999	          0.00999999	          0.01870631	          0.01245994	          0.04807628	          0.00999999	
          0.18164470	         -3.66497799	          3.34011787	         -5.95359676	          0.16610891	          0.96322031	          0.02933511	         22.77538941	         -1.17527726	          2.90624080	        -12.66817493	         -1.37900289	          0.88338717	         -5.44223727	         -2.79835430	        -21.68985264	        -35.97544288	         -0.42782543	         30.05699499	        -10.89318951	         -1.92805204	         -6.19184362	          0.00999999	          0.01873151	          0.00999999	          0.12780485	          0.14339122	          0.07201624	          0.00999999	          0.06205902	          0.00999999	          0.00999999	          0.09126445	          0.00999999	          0.00999999	          0.20264769	          0.05532754	          0.10750550	          0.00999999	          0.00999999	          0.03752236	          0.03752369	          0.01433702	          0.00999999	          0.01000000	          0.00999999	          0.01435919	          0.00999999	          0.03690394	          0.01482069	
